<svg version="1.1" xmlns="http://www.w3.org/2000/svg" xmlns:xlink="http://www.w3.org/1999/xlink" width="741" height="1340"><defs/><g><g transform="translate(-206,-262) scale(1,1)"><path fill="#ffffff" stroke="none" d="M 256.5 272 L 367.5 272 Q 384 272 384 288.5 L 384 287.5 Q 384 304 367.5 304 L 256.5 304 Q 240 304 240 287.5 L 240 288.5 Q 240 272 256.5 272 Z"/></g><g transform="translate(-206,-262) scale(1,1)"><path fill="none" stroke="#000000" d="M 256.5 272 L 367.5 272 Q 384 272 384 288.5 L 384 287.5 Q 384 304 367.5 304 L 256.5 304 Q 240 304 240 287.5 L 240 288.5 Q 240 272 256.5 272 Z" stroke-miterlimit="10"/></g><g transform="translate(-206,-262) scale(1,1)"><g><path fill="none" stroke="none"/><text fill="#000000" stroke="none" font-family="Arial" font-size="13px" font-style="normal" font-weight="normal" text-decoration="none" x="298.273193359375" y="294.5">Start</text></g></g><g transform="translate(-206,-262) scale(1,1)"><path fill="#ffffff" stroke="none" d="M 240 361.5 L 312 336 L 384 361.5 L 312 387 L 240 361.5"/></g><g transform="translate(-206,-262) scale(1,1)"><path fill="none" stroke="#000000" d="M 240 361.5 L 312 336 L 384 361.5 L 312 387 L 240 361.5 L 240 361.5" stroke-miterlimit="10"/></g><g transform="translate(-206,-262) scale(1,1)"><g><path fill="none" stroke="none"/><text fill="#000000" stroke="none" font-family="Arial" font-size="13px" font-style="normal" font-weight="normal" text-decoration="none" x="295.9912109375" y="361.5">Track</text><text fill="#000000" stroke="none" font-family="Arial" font-size="13px" font-style="normal" font-weight="normal" text-decoration="none" x="280.921875" y="374.5">auswählen</text></g></g><g transform="translate(-206,-262) scale(1,1)"><rect fill="#ffffff" stroke="none" x="240" y="416" width="144" height="32"/></g><g transform="translate(-206,-262) scale(1,1)"><path fill="none" stroke="#000000" d="M 240 416 L 384 416 L 384 448 L 240 448 L 240 416 Z Z" stroke-miterlimit="10"/></g><g transform="translate(-206,-262) scale(1,1)"><g><path fill="none" stroke="none"/><text fill="#000000" stroke="none" font-family="Arial" font-size="13px" font-style="normal" font-weight="normal" text-decoration="none" x="256.24853515625" y="438.5">Track Initialisierung</text></g></g><g transform="translate(-206,-262) scale(1,1)"><rect fill="#ffffff" stroke="none" x="240" y="477" width="144" height="32"/></g><g transform="translate(-206,-262) scale(1,1)"><path fill="none" stroke="#000000" d="M 240 477 L 384 477 L 384 509 L 240 509 L 240 477 Z Z" stroke-miterlimit="10"/></g><g transform="translate(-206,-262) scale(1,1)"><g><path fill="none" stroke="none"/><text fill="#000000" stroke="none" font-family="Arial" font-size="13px" font-style="normal" font-weight="normal" text-decoration="none" x="250.21826171875" y="499.5">Spieler 1 aktiv setzen</text></g></g><g transform="translate(-206,-262) scale(1,1)"><path fill="#ffffff" stroke="none" d="M 240 582.5 L 312 544 L 384 582.5 L 312 621 L 240 582.5"/></g><g transform="translate(-206,-262) scale(1,1)"><path fill="none" stroke="#000000" d="M 240 582.5 L 312 544 L 384 582.5 L 312 621 L 240 582.5 L 240 582.5" stroke-miterlimit="10"/></g><g transform="translate(-206,-262) scale(1,1)"><g><path fill="none" stroke="none"/><text fill="#000000" stroke="none" font-family="Arial" font-size="13px" font-style="normal" font-weight="normal" text-decoration="none" x="296.10546875" y="576">Move</text><text fill="#000000" stroke="none" font-family="Arial" font-size="13px" font-style="normal" font-weight="normal" text-decoration="none" x="285.984130859375" y="589">Strategie</text><text fill="#000000" stroke="none" font-family="Arial" font-size="13px" font-style="normal" font-weight="normal" text-decoration="none" x="280.921875" y="602">auswählen</text></g></g><g transform="translate(-206,-262) scale(1,1)"><rect fill="#ffffff" stroke="none" x="240" y="656" width="144" height="45"/></g><g transform="translate(-206,-262) scale(1,1)"><path fill="none" stroke="#000000" d="M 240 656 L 384 656 L 384 701 L 240 701 L 240 656 Z Z" stroke-miterlimit="10"/></g><g transform="translate(-206,-262) scale(1,1)"><g><path fill="none" stroke="none"/><text fill="#000000" stroke="none" font-family="Arial" font-size="13px" font-style="normal" font-weight="normal" text-decoration="none" x="272.260498046875" y="678.5">Strategie wird</text><text fill="#000000" stroke="none" font-family="Arial" font-size="13px" font-style="normal" font-weight="normal" text-decoration="none" x="277.671875" y="691.5">zugewiesen</text></g></g><g transform="translate(-206,-262) scale(1,1)"><rect fill="#ffffff" stroke="none" x="240" y="736" width="144" height="45"/></g><g transform="translate(-206,-262) scale(1,1)"><path fill="none" stroke="#000000" d="M 240 736 L 384 736 L 384 781 L 240 781 L 240 736 Z Z" stroke-miterlimit="10"/></g><g transform="translate(-206,-262) scale(1,1)"><g><path fill="none" stroke="none"/><text fill="#000000" stroke="none" font-family="Arial" font-size="13px" font-style="normal" font-weight="normal" text-decoration="none" x="262.5009765625" y="758.5">Nächsten Spieler</text><text fill="#000000" stroke="none" font-family="Arial" font-size="13px" font-style="normal" font-weight="normal" text-decoration="none" x="277.67822265625" y="771.5">aktiv setzen</text></g></g><g transform="translate(-206,-262) scale(1,1)"><path fill="#ffffff" stroke="none" d="M 240 867.5 L 312.498046875 816 L 384.99609375 867.5 L 312.498046875 919 L 240 867.5"/></g><g transform="translate(-206,-262) scale(1,1)"><path fill="none" stroke="#000000" d="M 240 867.5 L 312.498046875 816 L 384.99609375 867.5 L 312.498046875 919 L 240 867.5 L 240 867.5" stroke-miterlimit="10"/></g><g transform="translate(-206,-262) scale(1,1)"><g><path fill="none" stroke="none"/><text fill="#000000" stroke="none" font-family="Arial" font-size="13px" font-style="normal" font-weight="normal" text-decoration="none" x="292.633056640625" y="854.5">Aktiver</text><text fill="#000000" stroke="none" font-family="Arial" font-size="13px" font-style="normal" font-weight="normal" text-decoration="none" x="292.264892578125" y="867.5">Spieler</text><text fill="#000000" stroke="none" font-family="Arial" font-size="13px" font-style="normal" font-weight="normal" text-decoration="none" x="286.482177734375" y="880.5">Strategie</text><text fill="#000000" stroke="none" font-family="Arial" font-size="13px" font-style="normal" font-weight="normal" text-decoration="none" x="275.9990234375" y="893.5">ausgewählt?</text></g></g><g transform="translate(-206,-262) scale(1,1)"><path fill="none" stroke="#000000" d="M 385 864 L 440 864 M 440 864 A 8 8 0 0 0 448 856 L 448 592 M 448 592 A 8 8 0 0 0 440 584 L 384 584" stroke-miterlimit="10"/></g><g transform="translate(-206,-262) scale(1,1)"><path fill="#000000" stroke="none" d="M 394.16267485762415 579.790482243984 L 384 584 L 394.16267485762415 588.209517756016"/></g><g transform="translate(-206,-262) scale(1,1)"><path fill="none" stroke="#000000" d="M 394.16267485762415 579.790482243984 L 384 584 L 394.16267485762415 588.209517756016 L 394.16267485762415 579.790482243984" stroke-miterlimit="10"/></g><g transform="translate(-206,-262) scale(1,1)"><g><path fill="none" stroke="none"/><text fill="#000000" stroke="none" font-family="Arial" font-size="13px" font-style="normal" font-weight="normal" text-decoration="none" x="461.5" y="728.5">Nein</text></g></g><g transform="translate(-206,-262) scale(1,1)"><path fill="none" stroke="#000000" d="M 312 621 L 312 656" stroke-miterlimit="10"/></g><g transform="translate(-206,-262) scale(1,1)"><path fill="#000000" stroke="none" d="M 307.790482243984 645.8373251423759 L 312 656 L 316.209517756016 645.8373251423759"/></g><g transform="translate(-206,-262) scale(1,1)"><path fill="none" stroke="#000000" d="M 307.790482243984 645.8373251423759 L 312 656 L 316.209517756016 645.8373251423759 L 307.790482243984 645.8373251423759" stroke-miterlimit="10"/></g><g transform="translate(-206,-262) scale(1,1)"><path fill="none" stroke="#000000" d="M 312 701 L 312 736" stroke-miterlimit="10"/></g><g transform="translate(-206,-262) scale(1,1)"><path fill="#000000" stroke="none" d="M 307.790482243984 725.8373251423759 L 312 736 L 316.209517756016 725.8373251423759"/></g><g transform="translate(-206,-262) scale(1,1)"><path fill="none" stroke="#000000" d="M 307.790482243984 725.8373251423759 L 312 736 L 316.209517756016 725.8373251423759 L 307.790482243984 725.8373251423759" stroke-miterlimit="10"/></g><g transform="translate(-206,-262) scale(1,1)"><path fill="none" stroke="#000000" d="M 312 781 L 312 816" stroke-miterlimit="10"/></g><g transform="translate(-206,-262) scale(1,1)"><path fill="#000000" stroke="none" d="M 307.790482243984 805.8373251423759 L 312 816 L 316.209517756016 805.8373251423759"/></g><g transform="translate(-206,-262) scale(1,1)"><path fill="none" stroke="#000000" d="M 307.790482243984 805.8373251423759 L 312 816 L 316.209517756016 805.8373251423759 L 307.790482243984 805.8373251423759" stroke-miterlimit="10"/></g><g transform="translate(-206,-262) scale(1,1)"><path fill="none" stroke="#000000" d="M 312 304 L 312 336" stroke-miterlimit="10"/></g><g transform="translate(-206,-262) scale(1,1)"><path fill="#000000" stroke="none" d="M 307.790482243984 325.83732514237585 L 312 336 L 316.209517756016 325.83732514237585"/></g><g transform="translate(-206,-262) scale(1,1)"><path fill="none" stroke="#000000" d="M 307.790482243984 325.83732514237585 L 312 336 L 316.209517756016 325.83732514237585 L 307.790482243984 325.83732514237585" stroke-miterlimit="10"/></g><g transform="translate(-206,-262) scale(1,1)"><path fill="none" stroke="#000000" d="M 312 387 L 312 416" stroke-miterlimit="10"/></g><g transform="translate(-206,-262) scale(1,1)"><path fill="#000000" stroke="none" d="M 307.790482243984 405.83732514237585 L 312 416 L 316.209517756016 405.83732514237585"/></g><g transform="translate(-206,-262) scale(1,1)"><path fill="none" stroke="#000000" d="M 307.790482243984 405.83732514237585 L 312 416 L 316.209517756016 405.83732514237585 L 307.790482243984 405.83732514237585" stroke-miterlimit="10"/></g><g transform="translate(-206,-262) scale(1,1)"><path fill="none" stroke="#000000" d="M 312 448 L 312 477" stroke-miterlimit="10"/></g><g transform="translate(-206,-262) scale(1,1)"><path fill="#000000" stroke="none" d="M 307.790482243984 466.83732514237585 L 312 477 L 316.209517756016 466.83732514237585"/></g><g transform="translate(-206,-262) scale(1,1)"><path fill="none" stroke="#000000" d="M 307.790482243984 466.83732514237585 L 312 477 L 316.209517756016 466.83732514237585 L 307.790482243984 466.83732514237585" stroke-miterlimit="10"/></g><g transform="translate(-206,-262) scale(1,1)"><path fill="none" stroke="#000000" d="M 312 509 L 312 544" stroke-miterlimit="10"/></g><g transform="translate(-206,-262) scale(1,1)"><path fill="#000000" stroke="none" d="M 307.790482243984 533.8373251423759 L 312 544 L 316.209517756016 533.8373251423759"/></g><g transform="translate(-206,-262) scale(1,1)"><path fill="none" stroke="#000000" d="M 307.790482243984 533.8373251423759 L 312 544 L 316.209517756016 533.8373251423759 L 307.790482243984 533.8373251423759" stroke-miterlimit="10"/></g><g transform="translate(-206,-262) scale(1,1)"><path fill="#ffffff" stroke="none" d="M 240 1272 L 312 1224 L 384 1272 L 312 1320 L 240 1272"/></g><g transform="translate(-206,-262) scale(1,1)"><path fill="none" stroke="#000000" d="M 240 1272 L 312 1224 L 384 1272 L 312 1320 L 240 1272 L 240 1272" stroke-miterlimit="10"/></g><g transform="translate(-206,-262) scale(1,1)"><g><path fill="none" stroke="none"/><text fill="#000000" stroke="none" font-family="Arial" font-size="13px" font-style="normal" font-weight="normal" text-decoration="none" x="298.628662109375" y="1272">Auto</text><text fill="#000000" stroke="none" font-family="Arial" font-size="13px" font-style="normal" font-weight="normal" text-decoration="none" x="278.030517578125" y="1285">gecrashed?</text></g></g><g transform="translate(-206,-262) scale(1,1)"><path fill="#ffffff" stroke="none" d="M 240 1400 L 312 1352 L 384 1400 L 312 1448 L 240 1400"/></g><g transform="translate(-206,-262) scale(1,1)"><path fill="none" stroke="#000000" d="M 240 1400 L 312 1352 L 384 1400 L 312 1448 L 240 1400 L 240 1400" stroke-miterlimit="10"/></g><g transform="translate(-206,-262) scale(1,1)"><g><path fill="none" stroke="none"/><text fill="#000000" stroke="none" font-family="Arial" font-size="13px" font-style="normal" font-weight="normal" text-decoration="none" x="285.62548828125" y="1393.5">Nur noch</text><text fill="#000000" stroke="none" font-family="Arial" font-size="13px" font-style="normal" font-weight="normal" text-decoration="none" x="277.313232421875" y="1406.5">ein Auto am</text><text fill="#000000" stroke="none" font-family="Arial" font-size="13px" font-style="normal" font-weight="normal" text-decoration="none" x="287.8662109375" y="1419.5">"leben"?</text></g></g><g transform="translate(-206,-262) scale(1,1)"><path fill="none" stroke="#000000" d="M 312 1320 L 312 1352" stroke-miterlimit="10"/></g><g transform="translate(-206,-262) scale(1,1)"><path fill="#000000" stroke="none" d="M 307.790482243984 1341.837325142376 L 312 1352 L 316.209517756016 1341.837325142376"/></g><g transform="translate(-206,-262) scale(1,1)"><path fill="none" stroke="#000000" d="M 307.790482243984 1341.837325142376 L 312 1352 L 316.209517756016 1341.837325142376 L 307.790482243984 1341.837325142376" stroke-miterlimit="10"/></g><g transform="translate(-206,-262) scale(1,1)"><g><path fill="none" stroke="none"/><text fill="#000000" stroke="none" font-family="Arial" font-size="13px" font-style="normal" font-weight="normal" text-decoration="none" x="319.5" y="1341.5">Ja</text></g></g><g transform="translate(-206,-262) scale(1,1)"><path fill="#ffffff" stroke="none" d="M 256.5 1560 L 367.5 1560 Q 384 1560 384 1576.5 L 384 1575.5 Q 384 1592 367.5 1592 L 256.5 1592 Q 240 1592 240 1575.5 L 240 1576.5 Q 240 1560 256.5 1560 Z"/></g><g transform="translate(-206,-262) scale(1,1)"><path fill="none" stroke="#000000" d="M 256.5 1560 L 367.5 1560 Q 384 1560 384 1576.5 L 384 1575.5 Q 384 1592 367.5 1592 L 256.5 1592 Q 240 1592 240 1575.5 L 240 1576.5 Q 240 1560 256.5 1560 Z" stroke-miterlimit="10"/></g><g transform="translate(-206,-262) scale(1,1)"><g><path fill="none" stroke="none"/><text fill="#000000" stroke="none" font-family="Arial" font-size="13px" font-style="normal" font-weight="normal" text-decoration="none" x="283.08642578125" y="1582.5">Spielende</text></g></g><g transform="translate(-206,-262) scale(1,1)"><rect fill="#ffffff" stroke="none" x="248" y="1480" width="136" height="45"/></g><g transform="translate(-206,-262) scale(1,1)"><path fill="none" stroke="#000000" d="M 248 1480 L 384 1480 L 384 1525 L 248 1525 L 248 1480 Z Z" stroke-miterlimit="10"/></g><g transform="translate(-206,-262) scale(1,1)"><g><path fill="none" stroke="none"/><text fill="#000000" stroke="none" font-family="Arial" font-size="13px" font-style="normal" font-weight="normal" text-decoration="none" x="269.024169921875" y="1502.5">Letztes Auto hat</text><text fill="#000000" stroke="none" font-family="Arial" font-size="13px" font-style="normal" font-weight="normal" text-decoration="none" x="286.0009765625" y="1515.5">gewonnen</text></g></g><g transform="translate(-206,-262) scale(1,1)"><path fill="none" stroke="#000000" d="M 315 1525 L 315 1560" stroke-miterlimit="10"/></g><g transform="translate(-206,-262) scale(1,1)"><path fill="#000000" stroke="none" d="M 310.790482243984 1549.837325142376 L 315 1560 L 319.209517756016 1549.837325142376"/></g><g transform="translate(-206,-262) scale(1,1)"><path fill="none" stroke="#000000" d="M 310.790482243984 1549.837325142376 L 315 1560 L 319.209517756016 1549.837325142376 L 310.790482243984 1549.837325142376" stroke-miterlimit="10"/></g><g transform="translate(-206,-262) scale(1,1)"><path fill="none" stroke="#000000" d="M 314 1448 L 314 1480" stroke-miterlimit="10"/></g><g transform="translate(-206,-262) scale(1,1)"><path fill="#000000" stroke="none" d="M 309.790482243984 1469.837325142376 L 314 1480 L 318.209517756016 1469.837325142376"/></g><g transform="translate(-206,-262) scale(1,1)"><path fill="none" stroke="#000000" d="M 309.790482243984 1469.837325142376 L 314 1480 L 318.209517756016 1469.837325142376 L 309.790482243984 1469.837325142376" stroke-miterlimit="10"/></g><g transform="translate(-206,-262) scale(1,1)"><g><path fill="none" stroke="none"/><text fill="#000000" stroke="none" font-family="Arial" font-size="13px" font-style="normal" font-weight="normal" text-decoration="none" x="321.5" y="1469.5">Ja</text></g></g><g transform="translate(-206,-262) scale(1,1)"><rect fill="#ffffff" stroke="none" x="536" y="1384" width="144" height="45"/></g><g transform="translate(-206,-262) scale(1,1)"><path fill="none" stroke="#000000" d="M 536 1384 L 680 1384 L 680 1429 L 536 1429 L 536 1384 Z Z" stroke-miterlimit="10"/></g><g transform="translate(-206,-262) scale(1,1)"><g><path fill="none" stroke="none"/><text fill="#000000" stroke="none" font-family="Arial" font-size="13px" font-style="normal" font-weight="normal" text-decoration="none" x="558.5009765625" y="1406.5">Nächsten Spieler</text><text fill="#000000" stroke="none" font-family="Arial" font-size="13px" font-style="normal" font-weight="normal" text-decoration="none" x="573.67822265625" y="1419.5">aktiv setzen</text></g></g><g transform="translate(-206,-262) scale(1,1)"><path fill="none" stroke="#000000" d="M 384 1400 L 536 1400" stroke-miterlimit="10"/></g><g transform="translate(-206,-262) scale(1,1)"><path fill="#000000" stroke="none" d="M 525.8373251423759 1404.2095177560159 L 536 1400 L 525.8373251423758 1395.7904822439841"/></g><g transform="translate(-206,-262) scale(1,1)"><path fill="none" stroke="#000000" d="M 525.8373251423759 1404.2095177560159 L 536 1400 L 525.8373251423758 1395.7904822439841 L 525.8373251423759 1404.2095177560159" stroke-miterlimit="10"/></g><g transform="translate(-206,-262) scale(1,1)"><g><path fill="none" stroke="none"/><text fill="#000000" stroke="none" font-family="Arial" font-size="13px" font-style="normal" font-weight="normal" text-decoration="none" x="446.5" y="1391.5">Nein</text></g></g><g transform="translate(-206,-262) scale(1,1)"><rect fill="#ffffff" stroke="none" x="240" y="952" width="144" height="45"/></g><g transform="translate(-206,-262) scale(1,1)"><path fill="none" stroke="#000000" d="M 240 952 L 384 952 L 384 997 L 240 997 L 240 952 Z Z" stroke-miterlimit="10"/></g><g transform="translate(-206,-262) scale(1,1)"><g><path fill="none" stroke="none"/><text fill="#000000" stroke="none" font-family="Arial" font-size="13px" font-style="normal" font-weight="normal" text-decoration="none" x="276.35791015625" y="974.5">Wechsel zur</text><text fill="#000000" stroke="none" font-family="Arial" font-size="13px" font-style="normal" font-weight="normal" text-decoration="none" x="276.945068359375" y="987.5">Hauptphase</text></g></g><g transform="translate(-206,-262) scale(1,1)"><path fill="none" stroke="#000000" d="M 312 919 L 312 952" stroke-miterlimit="10"/></g><g transform="translate(-206,-262) scale(1,1)"><path fill="#000000" stroke="none" d="M 307.790482243984 941.8373251423759 L 312 952 L 316.209517756016 941.8373251423759"/></g><g transform="translate(-206,-262) scale(1,1)"><path fill="none" stroke="#000000" d="M 307.790482243984 941.8373251423759 L 312 952 L 316.209517756016 941.8373251423759 L 307.790482243984 941.8373251423759" stroke-miterlimit="10"/></g><g transform="translate(-206,-262) scale(1,1)"><g><path fill="none" stroke="none"/><text fill="#000000" stroke="none" font-family="Arial" font-size="13px" font-style="normal" font-weight="normal" text-decoration="none" x="319.5" y="940.5">Ja</text></g></g><g transform="translate(-206,-262) scale(1,1)"><path fill="#ffffff" stroke="none" d="M 216 1065.5 L 308.01708984375 1040 L 400.0341796875 1065.5 L 308.01708984375 1091 L 216 1065.5"/></g><g transform="translate(-206,-262) scale(1,1)"><path fill="none" stroke="#000000" d="M 216 1065.5 L 308.01708984375 1040 L 400.0341796875 1065.5 L 308.01708984375 1091 L 216 1065.5 L 216 1065.5" stroke-miterlimit="10"/></g><g transform="translate(-206,-262) scale(1,1)"><g><path fill="none" stroke="none"/><text fill="#000000" stroke="none" font-family="Arial" font-size="13px" font-style="normal" font-weight="normal" text-decoration="none" x="261.758544921875" y="1065.5">Beschleunigung</text><text fill="#000000" stroke="none" font-family="Arial" font-size="13px" font-style="normal" font-weight="normal" text-decoration="none" x="276.93896484375" y="1078.5">auswählen</text></g></g><g transform="translate(-206,-262) scale(1,1)"><path fill="none" stroke="#000000" d="M 311 997 L 311 1040" stroke-miterlimit="10"/></g><g transform="translate(-206,-262) scale(1,1)"><path fill="#000000" stroke="none" d="M 306.790482243984 1029.837325142376 L 311 1040 L 315.209517756016 1029.837325142376"/></g><g transform="translate(-206,-262) scale(1,1)"><path fill="none" stroke="#000000" d="M 306.790482243984 1029.837325142376 L 311 1040 L 315.209517756016 1029.837325142376 L 306.790482243984 1029.837325142376" stroke-miterlimit="10"/></g><g transform="translate(-206,-262) scale(1,1)"><rect fill="#ffffff" stroke="none" x="240" y="1120" width="144" height="45"/></g><g transform="translate(-206,-262) scale(1,1)"><path fill="none" stroke="#000000" d="M 240 1120 L 384 1120 L 384 1165 L 240 1165 L 240 1120 Z Z" stroke-miterlimit="10"/></g><g transform="translate(-206,-262) scale(1,1)"><g><path fill="none" stroke="none"/><text fill="#000000" stroke="none" font-family="Arial" font-size="13px" font-style="normal" font-weight="normal" text-decoration="none" x="252.017822265625" y="1142.5">Beschleunigung wird</text><text fill="#000000" stroke="none" font-family="Arial" font-size="13px" font-style="normal" font-weight="normal" text-decoration="none" x="276.580078125" y="1155.5">angewendet</text></g></g><g transform="translate(-206,-262) scale(1,1)"><path fill="none" stroke="#000000" d="M 309 1091 L 309 1120" stroke-miterlimit="10"/></g><g transform="translate(-206,-262) scale(1,1)"><path fill="#000000" stroke="none" d="M 304.790482243984 1109.837325142376 L 309 1120 L 313.209517756016 1109.837325142376"/></g><g transform="translate(-206,-262) scale(1,1)"><path fill="none" stroke="#000000" d="M 304.790482243984 1109.837325142376 L 309 1120 L 313.209517756016 1109.837325142376 L 304.790482243984 1109.837325142376" stroke-miterlimit="10"/></g><g transform="translate(-206,-262) scale(1,1)"><path fill="#ffffff" stroke="none" d="M 536 1272 L 608 1224 L 680 1272 L 608 1320 L 536 1272"/></g><g transform="translate(-206,-262) scale(1,1)"><path fill="none" stroke="#000000" d="M 536 1272 L 608 1224 L 680 1272 L 608 1320 L 536 1272 L 536 1272" stroke-miterlimit="10"/></g><g transform="translate(-206,-262) scale(1,1)"><g><path fill="none" stroke="none"/><text fill="#000000" stroke="none" font-family="Arial" font-size="13px" font-style="normal" font-weight="normal" text-decoration="none" x="585.964111328125" y="1272">Auto im</text><text fill="#000000" stroke="none" font-family="Arial" font-size="13px" font-style="normal" font-weight="normal" text-decoration="none" x="593.911376953125" y="1285">Ziel?</text></g></g><g transform="translate(-206,-262) scale(1,1)"><path fill="none" stroke="#000000" d="M 384 1270 L 536 1270" stroke-miterlimit="10"/></g><g transform="translate(-206,-262) scale(1,1)"><path fill="#000000" stroke="none" d="M 525.8373251423759 1274.2095177560159 L 536 1270 L 525.8373251423758 1265.7904822439841"/></g><g transform="translate(-206,-262) scale(1,1)"><path fill="none" stroke="#000000" d="M 525.8373251423759 1274.2095177560159 L 536 1270 L 525.8373251423758 1265.7904822439841 L 525.8373251423759 1274.2095177560159" stroke-miterlimit="10"/></g><g transform="translate(-206,-262) scale(1,1)"><g><path fill="none" stroke="none"/><text fill="#000000" stroke="none" font-family="Arial" font-size="13px" font-style="normal" font-weight="normal" text-decoration="none" x="446.5" y="1261.5">Nein</text></g></g><g transform="translate(-206,-262) scale(1,1)"><path fill="none" stroke="#000000" d="M 608 1320 L 608 1384" stroke-miterlimit="10"/></g><g transform="translate(-206,-262) scale(1,1)"><path fill="#000000" stroke="none" d="M 603.790482243984 1373.837325142376 L 608 1384 L 612.209517756016 1373.837325142376"/></g><g transform="translate(-206,-262) scale(1,1)"><path fill="none" stroke="#000000" d="M 603.790482243984 1373.837325142376 L 608 1384 L 612.209517756016 1373.837325142376 L 603.790482243984 1373.837325142376" stroke-miterlimit="10"/></g><g transform="translate(-206,-262) scale(1,1)"><g><path fill="none" stroke="none"/><text fill="#000000" stroke="none" font-family="Arial" font-size="13px" font-style="normal" font-weight="normal" text-decoration="none" x="613.5" y="1357.5">Nein</text></g></g><g transform="translate(-206,-262) scale(1,1)"><rect fill="#ffffff" stroke="none" x="752" y="1248" width="144" height="45"/></g><g transform="translate(-206,-262) scale(1,1)"><path fill="none" stroke="#000000" d="M 752 1248 L 896 1248 L 896 1293 L 752 1293 L 752 1248 Z Z" stroke-miterlimit="10"/></g><g transform="translate(-206,-262) scale(1,1)"><g><path fill="none" stroke="none"/><text fill="#000000" stroke="none" font-family="Arial" font-size="13px" font-style="normal" font-weight="normal" text-decoration="none" x="777.030517578125" y="1270.5">Aktives Auto hat</text><text fill="#000000" stroke="none" font-family="Arial" font-size="13px" font-style="normal" font-weight="normal" text-decoration="none" x="794.0009765625" y="1283.5">gewonnen</text></g></g><g transform="translate(-206,-262) scale(1,1)"><path fill="none" stroke="#000000" d="M 680 1271 L 752 1271" stroke-miterlimit="10"/></g><g transform="translate(-206,-262) scale(1,1)"><path fill="#000000" stroke="none" d="M 741.8373251423759 1275.2095177560159 L 752 1271 L 741.8373251423758 1266.7904822439841"/></g><g transform="translate(-206,-262) scale(1,1)"><path fill="none" stroke="#000000" d="M 741.8373251423759 1275.2095177560159 L 752 1271 L 741.8373251423758 1266.7904822439841 L 741.8373251423759 1275.2095177560159" stroke-miterlimit="10"/></g><g transform="translate(-206,-262) scale(1,1)"><g><path fill="none" stroke="none"/><text fill="#000000" stroke="none" font-family="Arial" font-size="13px" font-style="normal" font-weight="normal" text-decoration="none" x="709.5" y="1262.5">Ja</text></g></g><g transform="translate(-206,-262) scale(1,1)"><path fill="#ffffff" stroke="none" d="M 768.5 1328 L 879.5 1328 Q 896 1328 896 1344.5 L 896 1343.5 Q 896 1360 879.5 1360 L 768.5 1360 Q 752 1360 752 1343.5 L 752 1344.5 Q 752 1328 768.5 1328 Z"/></g><g transform="translate(-206,-262) scale(1,1)"><path fill="none" stroke="#000000" d="M 768.5 1328 L 879.5 1328 Q 896 1328 896 1344.5 L 896 1343.5 Q 896 1360 879.5 1360 L 768.5 1360 Q 752 1360 752 1343.5 L 752 1344.5 Q 752 1328 768.5 1328 Z" stroke-miterlimit="10"/></g><g transform="translate(-206,-262) scale(1,1)"><g><path fill="none" stroke="none"/><text fill="#000000" stroke="none" font-family="Arial" font-size="13px" font-style="normal" font-weight="normal" text-decoration="none" x="795.08642578125" y="1350.5">Spielende</text></g></g><g transform="translate(-206,-262) scale(1,1)"><path fill="none" stroke="#000000" d="M 824 1293 L 824 1328" stroke-miterlimit="10"/></g><g transform="translate(-206,-262) scale(1,1)"><path fill="#000000" stroke="none" d="M 819.790482243984 1317.837325142376 L 824 1328 L 828.209517756016 1317.837325142376"/></g><g transform="translate(-206,-262) scale(1,1)"><path fill="none" stroke="#000000" d="M 819.790482243984 1317.837325142376 L 824 1328 L 828.209517756016 1317.837325142376 L 819.790482243984 1317.837325142376" stroke-miterlimit="10"/></g><g transform="translate(-206,-262) scale(1,1)"><path fill="none" stroke="#000000" d="M 312 1165 L 312 1224" stroke-miterlimit="10"/></g><g transform="translate(-206,-262) scale(1,1)"><path fill="#000000" stroke="none" d="M 307.790482243984 1213.837325142376 L 312 1224 L 316.209517756016 1213.837325142376"/></g><g transform="translate(-206,-262) scale(1,1)"><path fill="none" stroke="#000000" d="M 307.790482243984 1213.837325142376 L 312 1224 L 316.209517756016 1213.837325142376 L 307.790482243984 1213.837325142376" stroke-miterlimit="10"/></g><g transform="translate(-206,-262) scale(1,1)"><path fill="none" stroke="#000000" d="M 680 1408 L 928 1408 M 928 1408 A 8 8 0 0 0 936 1400 L 936 1072 M 936 1072 A 8 8 0 0 0 928 1064 L 400 1064" stroke-miterlimit="10"/></g><g transform="translate(-206,-262) scale(1,1)"><path fill="#000000" stroke="none" d="M 410.16267485762415 1059.7904822439841 L 400 1064 L 410.16267485762415 1068.2095177560159"/></g><g transform="translate(-206,-262) scale(1,1)"><path fill="none" stroke="#000000" d="M 410.16267485762415 1059.7904822439841 L 400 1064 L 410.16267485762415 1068.2095177560159 L 410.16267485762415 1059.7904822439841" stroke-miterlimit="10"/></g></g></svg>